      <svg
        width="237"
        height="237"
        viewBox="0 0 237 237"
        fill="none"
        xmlns="http://www.w3.org/2000/svg"
      >
        
        <g>
          <path
            d="M118.863 180.299C84.6119 180.299 56.7469 152.434 56.7469 118.184C56.7469 83.9329 84.6119 56.0679 118.863 56.0679C153.113 56.0679 180.978 83.9329 180.978 118.184C180.978 152.434 153.113 180.299 118.863 180.299ZM118.863 68.4911C91.4619 68.4911 69.17 90.783 69.17 118.184C69.17 145.584 91.4619 167.876 118.863 167.876C146.263 167.876 168.555 145.584 168.555 118.184C168.555 90.783 146.263 68.4911 118.863 68.4911Z"
            fill="#ffffff"
          />
          <path
            d="M118.802 46.0687C115.371 46.0687 112.59 43.2878 112.59 39.8572V6.31466C112.59 2.88404 115.371 0.103088 118.802 0.103088C122.233 0.103088 125.014 2.88404 125.014 6.31466V39.8572C125.014 43.2878 122.233 46.0687 118.802 46.0687Z"
            fill="#ffffff"
          />
          <path
            d="M118.802 236.143C115.371 236.143 112.59 233.362 112.59 229.931V196.389C112.59 192.958 115.371 190.177 118.802 190.177C122.233 190.177 125.014 192.958 125.014 196.389V229.931C125.014 233.362 122.233 236.143 118.802 236.143Z"
            fill="#ffffff"
          />
          <path
            d="M40.5362 124.335H6.99368C3.56306 124.335 0.782104 121.554 0.782104 118.123C0.782104 114.692 3.56306 111.911 6.99368 111.911H40.5362C43.9668 111.911 46.7477 114.692 46.7477 118.123C46.7477 121.554 43.9668 124.335 40.5362 124.335Z"
            fill="#ffffff"
          />
          <path
            d="M230.61 124.335H197.068C193.637 124.335 190.856 121.554 190.856 118.123C190.856 114.692 193.637 111.911 197.068 111.911H230.61C234.041 111.911 236.822 114.692 236.822 118.123C236.822 121.554 234.041 124.335 230.61 124.335Z"
            fill="#ffffff"
          />
          <path
            d="M173.8 69.336C172.211 69.336 170.621 68.7297 169.408 67.5169C166.983 65.0911 166.983 61.1579 169.408 58.7321L193.47 34.6701C195.896 32.2443 199.829 32.2443 202.255 34.6701C204.68 37.0959 204.68 41.0291 202.255 43.4549L178.193 67.5169C176.98 68.7297 175.39 69.336 173.8 69.336Z"
            fill="#ffffff"
          />
          <path
            d="M39.7414 203.395C38.1518 203.395 36.5619 202.789 35.349 201.576C32.9236 199.15 32.9236 195.217 35.349 192.791L59.411 168.729C61.8368 166.303 65.77 166.303 68.1958 168.729C70.6213 171.155 70.6213 175.088 68.1958 177.514L44.1338 201.576C42.9209 202.789 41.331 203.395 39.7414 203.395Z"
            fill="#ffffff"
          />
          <path
            d="M63.8034 69.336C62.2138 69.336 60.6239 68.7297 59.411 67.5169L35.349 43.4549C32.9236 41.0291 32.9236 37.0959 35.349 34.6701C37.7748 32.2443 41.708 32.2443 44.1338 34.6701L68.1958 58.7321C70.6213 61.1579 70.6213 65.0911 68.1958 67.5169C66.9829 68.7297 65.393 69.336 63.8034 69.336Z"
            fill="#ffffff"
          />
          <path
            d="M197.862 203.395C196.273 203.395 194.683 202.789 193.47 201.576L169.408 177.514C166.983 175.088 166.983 171.155 169.408 168.729C171.834 166.303 175.767 166.303 178.193 168.729L202.255 192.791C204.68 195.217 204.68 199.15 202.255 201.576C201.042 202.789 199.452 203.395 197.862 203.395Z"
            fill="#ffffff"
          />
          
        </g>
  <animateTransform
    attributeName="transform"
    type="rotate"
    from="0 0 0"
    to="360 0 0"
    dur="10s"
    repeatCount="indefinite"
  />
      </svg>
      