<svg width="138" height="150" viewBox="0 0 138 150" fill="none" xmlns="http://www.w3.org/2000/svg">
<path d="M75.0051 149.534C33.9044 149.534 0.466248 116.096 0.466248 74.9955C0.466248 33.8948 33.9044 0.456665 75.0051 0.456665C76.9963 0.456665 79.0363 0.53977 81.0681 0.703551C83.2901 0.883103 85.2451 2.23885 86.192 4.2564C87.1389 6.27395 86.9321 8.64454 85.6503 10.468C78.2799 20.9506 74.384 33.2882 74.384 46.1463C74.384 61.856 80.2616 76.8475 90.9344 88.3601C101.55 99.8115 115.934 106.806 131.435 108.056C133.657 108.235 135.612 109.59 136.559 111.609C137.506 113.626 137.299 115.997 136.017 117.82C122.055 137.678 99.2466 149.534 75.0051 149.534ZM69.6637 13.1073C37.9049 15.8261 12.8894 42.5449 12.8894 74.9955C12.8894 109.247 40.7544 137.111 75.0051 137.111C91.7084 137.111 107.596 130.356 119.177 118.658C104.93 115.269 91.9474 107.726 81.8239 96.8064C69.015 82.9893 61.9608 64.9982 61.9608 46.1463C61.9608 34.5566 64.5995 23.3176 69.6637 13.1073Z" fill="#ffffff"/>
<animateTransform attributeName="transform" type="rotate" values="-5 32 32;15 32 32;-5 32 32" dur="10s" repeatCount="indefinite"/>
</svg>
