<svg width="277" height="226" viewBox="0 0 277 226" fill="none" xmlns="http://www.w3.org/2000/svg">
<g>
<path d="M44.1232 225.689C20.2262 225.532 0.818115 206.024 0.818115 182.204C0.818115 161.504 15.0962 144.202 34.5341 139.802C34.2181 138.063 34.0591 136.289 34.0591 134.486C34.0591 118.179 47.3261 104.912 63.6327 104.912C69.0496 104.912 74.2409 106.357 78.7703 109.066C91.182 92.6537 110.333 83.0415 131.233 83.0415C163.899 83.0415 191.433 107.104 196.319 138.812C218.928 140.335 236.858 159.215 236.858 182.204C236.858 205.946 217.543 225.452 193.8 225.686L44.1232 225.689ZM63.6327 117.335C54.1758 117.335 46.4823 125.029 46.4823 134.486C46.4823 137.183 47.0949 139.769 48.3027 142.172C49.2508 144.058 49.1762 146.298 48.1037 148.117C47.0313 149.936 45.1077 151.085 42.998 151.169C26.3123 151.827 13.2413 165.46 13.2413 182.204C13.2413 199.219 27.113 213.154 44.1639 213.266L193.739 213.263C210.637 213.096 224.435 199.163 224.435 182.204C224.435 165.073 210.498 151.136 193.367 151.136C192.728 151.136 192.034 151.163 191.183 151.222C189.541 151.336 187.907 150.79 186.663 149.701C185.419 148.612 184.659 147.073 184.554 145.423C182.757 117.409 159.335 95.4647 131.233 95.4647C112.388 95.4647 95.2941 105.098 85.5072 121.234C84.5166 122.868 82.8291 123.954 80.9323 124.181C79.0348 124.406 77.1398 123.748 75.7919 122.393C72.5484 119.131 68.2301 117.335 63.6327 117.335Z" fill="#ffffff"/>
<path d="M230.019 148.148C227.203 148.148 224.653 146.221 223.979 143.361C223.191 140.022 225.26 136.677 228.599 135.89C239.99 133.204 250.312 127.357 258.468 119.094C244.217 115.707 231.231 108.163 221.105 97.2404C208.296 83.4233 201.242 65.4319 201.242 46.5803C201.242 34.9907 203.881 23.7507 208.946 13.5401C194.656 14.7533 181.323 20.8229 170.943 30.9358C159.301 42.278 152.643 57.4573 152.195 73.6774C152.1 77.1068 149.252 79.8335 145.814 79.7149C142.385 79.6203 139.682 76.7635 139.777 73.3341C140.315 53.8653 148.304 35.6479 162.274 22.0376C176.27 8.40099 194.742 0.890991 214.286 0.890991C216.278 0.890991 218.318 0.973794 220.348 1.13727C222.57 1.31592 224.526 2.67166 225.473 4.68951C226.42 6.70737 226.213 9.07795 224.932 10.9014C217.561 21.3849 213.665 33.7223 213.665 46.5803C213.665 62.29 219.543 77.2818 230.216 88.7945C240.832 100.246 255.215 107.241 270.716 108.49C272.938 108.669 274.893 110.025 275.84 112.042C276.787 114.06 276.58 116.431 275.299 118.254C264.761 133.241 249.189 143.798 231.45 147.981C230.971 148.094 230.491 148.148 230.019 148.148Z" fill="#ffffff"/>
<animateTransform attributeName="transform" type="translate" values="-3 0; 5 0; -3 0" dur="4s" repeatCount="indefinite"/>
</g>
</svg>
