<svg width="237" height="144" viewBox="0 0 237 144" fill="none" xmlns="http://www.w3.org/2000/svg">
<g>
<path d="M43.8738 143.054C19.9769 142.897 0.568726 123.39 0.568726 99.5694C0.568726 78.8698 14.8472 61.5672 34.2844 57.1675C33.9684 55.4287 33.8097 53.6544 33.8097 51.851C33.8097 35.5441 47.0764 22.2775 63.3836 22.2775C68.7999 22.2775 73.9915 23.723 78.5209 26.4318C90.9323 10.019 110.083 0.40686 130.984 0.40686C163.65 0.40686 191.184 24.4694 196.069 56.177C218.678 57.7001 236.609 76.5805 236.609 99.5694C236.609 123.311 217.293 142.817 193.551 143.051L43.8738 143.054ZM63.3836 34.7006C53.9267 34.7006 46.2329 42.3941 46.2329 51.851C46.2329 54.5489 46.8452 57.1351 48.053 59.5372C49.0014 61.4237 48.9265 63.663 47.854 65.4822C46.7816 67.3011 44.8583 68.4506 42.7483 68.534C26.0626 69.1928 12.9919 82.8252 12.9919 99.5694C12.9919 116.585 26.8639 130.519 43.9148 130.631L193.49 130.628C210.388 130.461 224.185 116.528 224.185 99.5694C224.185 82.4381 210.248 68.5009 193.117 68.5009C192.479 68.5009 191.785 68.5285 190.933 68.5877C189.285 68.7026 187.658 68.1546 186.413 67.0663C185.169 65.9778 184.41 64.4382 184.304 62.7886C182.507 34.7743 159.086 12.83 130.984 12.83C112.138 12.83 95.0447 22.4634 85.2584 38.5992C84.2679 40.2328 82.5803 41.3195 80.6832 41.5461C78.7869 41.7699 76.8904 41.1133 75.5431 39.7585C72.2994 36.4968 67.981 34.7006 63.3836 34.7006Z" fill="#ffffff"/>
<animateTransform attributeName="transform" type="translate" values="-3 0; 5 0; -3 0" dur="4s" repeatCount="indefinite"/>
</g>
</svg>
