<svg width="286" height="262" viewBox="0 0 286 262" fill="none" xmlns="http://www.w3.org/2000/svg">
<g>
<path d="M202.975 168.181C201.168 168.181 199.377 167.397 198.149 165.885C195.987 163.222 196.393 159.31 199.056 157.147C210.744 147.656 217.448 133.587 217.448 118.549C217.448 91.1482 195.156 68.8563 167.755 68.8563C142.41 68.8563 121.18 87.8192 118.372 112.965C117.992 116.375 114.92 118.829 111.51 118.45C108.101 118.069 105.645 114.996 106.026 111.587C109.537 80.1442 136.074 56.4332 167.755 56.4332C202.006 56.4332 229.871 84.2982 229.871 118.549C229.871 137.346 221.494 154.93 206.887 166.791C205.735 167.726 204.351 168.181 202.975 168.181Z" fill="#ffffff"/>
<path d="M167.694 46.434C164.264 46.434 161.483 43.653 161.483 40.2224V6.6799C161.483 3.24927 164.264 0.468323 167.694 0.468323C171.125 0.468323 173.906 3.24927 173.906 6.6799V40.2224C173.906 43.653 171.125 46.434 167.694 46.434Z" fill="#ffffff"/>
<path d="M89.4286 124.7H55.8861C52.4555 124.7 49.6745 121.919 49.6745 118.488C49.6745 115.058 52.4555 112.277 55.8861 112.277H89.4286C92.8592 112.277 95.6401 115.058 95.6401 118.488C95.6401 121.919 92.8592 124.7 89.4286 124.7Z" fill="#ffffff"/>
<path d="M279.503 124.7H245.96C242.53 124.7 239.749 121.919 239.749 118.488C239.749 115.058 242.53 112.277 245.96 112.277H279.503C282.933 112.277 285.714 115.058 285.714 118.488C285.714 121.919 282.933 124.7 279.503 124.7Z" fill="#ffffff"/>
<path d="M222.693 69.7013C221.103 69.7013 219.514 69.095 218.301 67.8821C215.875 65.4563 215.875 61.5231 218.301 59.0973L242.362 35.0354C244.789 32.6096 248.721 32.6096 251.147 35.0354C253.573 37.4611 253.573 41.3943 251.147 43.8201L227.085 67.8821C225.872 69.095 224.283 69.7013 222.693 69.7013Z" fill="#ffffff"/>
<path d="M112.696 69.7013C111.106 69.7013 109.516 69.095 108.303 67.8821L84.2415 43.8201C81.816 41.3943 81.816 37.4612 84.2415 35.0354C86.6673 32.6096 90.6005 32.6096 93.0262 35.0354L117.088 59.0973C119.514 61.5231 119.514 65.4563 117.088 67.8821C115.875 69.095 114.285 69.7013 112.696 69.7013Z" fill="#ffffff"/>
<path d="M246.755 203.76C245.165 203.76 243.576 203.154 242.362 201.941L218.301 177.879C215.875 175.453 215.875 171.52 218.301 169.094C220.727 166.669 224.659 166.669 227.085 169.094L251.147 193.156C253.573 195.582 253.573 199.515 251.147 201.941C249.934 203.154 248.345 203.76 246.755 203.76Z" fill="#ffffff"/>
<path d="M43.4423 261.354C19.5453 261.197 0.137207 241.69 0.137207 217.869C0.137207 197.17 14.4156 179.867 33.8529 175.468C33.5368 173.729 33.3782 171.954 33.3782 170.151C33.3782 153.844 46.6448 140.578 62.952 140.578C68.3684 140.578 73.56 142.023 78.0894 144.732C90.5007 128.319 109.652 118.707 130.553 118.707C163.218 118.707 190.752 142.769 195.638 174.477C218.247 176 236.177 194.881 236.177 217.869C236.177 241.611 216.862 261.117 193.119 261.351L43.4423 261.354ZM62.952 153.001C53.4952 153.001 45.8014 160.694 45.8014 170.151C45.8014 172.849 46.4137 175.435 47.6215 177.837C48.5699 179.724 48.495 181.963 47.4225 183.782C46.35 185.601 44.4268 186.751 42.3168 186.834C25.631 187.493 12.5604 201.125 12.5604 217.869C12.5604 234.885 26.4324 248.819 43.4833 248.931L193.058 248.928C209.956 248.761 223.754 234.828 223.754 217.869C223.754 200.738 209.817 186.801 192.686 186.801C192.048 186.801 191.354 186.829 190.503 186.888C188.859 187 187.226 186.455 185.982 185.366C184.738 184.278 183.979 182.739 183.873 181.089C182.076 153.074 158.655 131.13 130.553 131.13C111.707 131.13 94.6132 140.763 84.8269 156.899C83.8363 158.533 82.1488 159.62 80.2516 159.846C78.3548 160.07 76.4589 159.413 75.1116 158.058C71.8678 154.797 67.5495 153.001 62.952 153.001Z" fill="#ffffff"/>
<animateTransform attributeName="transform" type="translate" values="-3 0; 5 0; -3 0" dur="4s" repeatCount="indefinite"/>
</g>
</svg>
