<svg width="237" height="210" viewBox="0 0 237 210" fill="none" xmlns="http://www.w3.org/2000/svg">
<path d="M193.701 142.778L187.127 142.776L44.0872 142.722C20.2087 142.722 0.782104 123.241 0.782104 99.296C0.782104 78.6262 15.0602 61.3472 34.4978 56.953C34.1821 55.2145 34.0231 53.4402 34.0231 51.6374C34.0231 35.3302 47.2897 22.0632 63.5969 22.0632C69.0139 22.0632 74.2048 23.5082 78.734 26.2169C91.1462 9.80296 110.297 0.189575 131.198 0.189575C163.861 0.189575 191.394 24.2461 196.281 55.9485C218.893 57.4692 236.822 76.3435 236.822 99.326C236.822 123.052 217.506 142.544 193.764 142.777C193.743 142.778 193.722 142.778 193.701 142.778ZM187.131 130.352L193.673 130.355C210.618 130.172 224.399 116.259 224.399 99.326C224.399 82.2033 210.462 68.2727 193.331 68.2727C192.598 68.2727 191.816 68.3203 191.147 68.3668C189.5 68.4826 187.871 67.9339 186.627 66.8454C185.383 65.7569 184.623 64.2173 184.518 62.5677C182.721 34.5555 159.3 12.6127 131.198 12.6127C112.353 12.6127 95.259 22.247 85.4718 38.3841C84.4812 40.0177 82.7937 41.1044 80.8965 41.3309C78.9988 41.5545 77.1038 40.8981 75.7565 39.5433C72.5133 36.2822 68.195 34.4864 63.5969 34.4864C54.1401 34.4864 46.4463 42.1802 46.4463 51.6374C46.4463 54.3355 47.0586 56.9214 48.2664 59.3236C49.2148 61.2101 49.1399 63.4494 48.0674 65.2685C46.9949 67.0874 45.0717 68.2369 42.9617 68.3203C26.2759 68.9791 13.2053 82.5854 13.2053 99.296C13.2053 116.391 27.0588 130.298 44.0872 130.298H50.4747L187.131 130.352Z" fill="#ffffff"/>
<g>
<path d="M97.0354 209.148C95.4446 209.148 93.8541 208.541 92.6409 207.326C90.2163 204.899 90.2184 200.966 92.6454 198.542L108.2 183.003C110.628 180.578 114.561 180.58 116.985 183.007C119.409 185.434 119.407 189.367 116.98 191.791L101.425 207.33C100.213 208.542 98.6238 209.148 97.0354 209.148Z" fill="#ffffff"/>
<animateTransform attributeName="transform" type="translate" values="1 -5; -2 10" dur="3s" repeatCount="indefinite"/>
<animate attributeName="opacity" values="0;1;1;0" dur="3s" repeatCount="indefinite"/>
</g>
<g>
<path d="M42.9947 173.742C41.4039 173.742 39.8134 173.135 38.6002 171.92C36.1756 169.493 36.1777 165.561 38.6047 163.136L48.4141 153.336C50.8411 150.912 54.7739 150.914 57.1985 153.341C59.6231 155.768 59.621 159.7 57.194 162.125L47.3847 171.924C46.1721 173.136 44.5834 173.742 42.9947 173.742Z" fill="#ffffff"/>
<animateTransform attributeName="transform" type="translate" values="1 -5; -2 10" dur="5s" repeatCount="indefinite"/>
<animate attributeName="opacity" values="0;1;1;0" dur="5s" repeatCount="indefinite"/>
</g>
<g>
<path d="M129.336 173.742C127.745 173.742 126.154 173.135 124.941 171.92C122.516 169.493 122.519 165.561 124.946 163.136L134.755 153.336C137.182 150.912 141.115 150.914 143.539 153.341C145.964 155.768 145.962 159.7 143.535 162.125L133.726 171.924C132.513 173.136 130.924 173.742 129.336 173.742Z" fill="#ffffff"/>
<animateTransform attributeName="transform" type="translate" values="1 -5; -2 10" dur="4s" repeatCount="indefinite"/>
<animate attributeName="opacity" values="0;1;1;0" dur="4s" repeatCount="indefinite"/>
</g>
<g>
<path d="M157.288 189.372C155.697 189.372 154.106 188.765 152.893 187.55C150.468 185.123 150.471 181.19 152.898 178.766L178.361 153.336C180.788 150.911 184.721 150.914 187.145 153.341C189.57 155.768 189.567 159.701 187.14 162.125L161.677 187.555C160.464 188.767 158.876 189.372 157.288 189.372Z" fill="#ffffff"/>
<animateTransform attributeName="transform" type="translate" values="1 -5; -2 10" dur="5s" repeatCount="indefinite"/>
<animate attributeName="opacity" values="0;1;1;0" dur="5s" repeatCount="indefinite"/>
</g>
<g>
<path d="M63.4929 196.205C61.9021 196.205 60.3116 195.598 59.0984 194.383C56.6738 191.956 56.6759 188.024 59.1029 185.599L91.3983 153.336C93.8253 150.912 97.7581 150.914 100.183 153.341C102.607 155.768 102.605 159.7 100.178 162.125L67.8828 194.387C66.6702 195.599 65.0813 196.205 63.4929 196.205Z" fill="#ffffff"/>
<animateTransform attributeName="transform" type="translate" values="1 -5; -2 10" dur="4s" repeatCount="indefinite"/>
<animate attributeName="opacity" values="0;1;1;0" dur="4s" repeatCount="indefinite"/>
</g>
</svg>
