<svg width="259" height="294" viewBox="0 0 259 294" fill="none" xmlns="http://www.w3.org/2000/svg">
<g>
<path d="M187.81 144.813C186.247 144.813 184.688 144.196 183.527 142.973C181.285 140.608 181.383 136.874 183.748 134.631C192.748 126.092 197.705 114.561 197.705 102.16C197.705 77.486 177.632 57.4127 152.958 57.4127C131.287 57.4127 112.769 72.8628 108.925 94.1495C108.346 97.356 105.275 99.4861 102.07 98.908C98.8625 98.329 96.7321 95.2596 97.3114 92.0525C102.17 65.1423 125.573 45.6107 152.958 45.6107C184.139 45.6107 209.507 70.9784 209.507 102.16C209.507 117.831 203.244 132.404 191.87 143.193C190.729 144.276 189.268 144.813 187.81 144.813Z" fill="#ffffff"/>
<path d="M135.469 40.6615C132.754 40.6615 130.311 38.7777 129.709 36.0171L123.486 7.49359C122.791 4.30955 124.809 1.16524 127.993 0.470384C131.183 -0.225083 134.322 1.79428 135.016 4.97802L141.239 33.5015C141.935 36.6856 139.916 39.8299 136.732 40.5247C136.308 40.6172 135.885 40.6615 135.469 40.6615Z" fill="#ffffff"/>
<path d="M222.202 95.8062C219.488 95.8062 217.044 93.9224 216.442 91.1618C215.747 87.9777 217.765 84.8334 220.949 84.1386L251.293 77.5184C254.484 76.823 257.623 78.8424 258.317 82.0261C259.012 85.2101 256.994 88.3544 253.81 89.0493L223.466 95.6694C223.042 95.7619 222.618 95.8062 222.202 95.8062Z" fill="#ffffff"/>
<path d="M190.444 50.6185C189.352 50.6185 188.248 50.3164 187.262 49.6831C184.519 47.9227 183.723 44.2722 185.483 41.5295L202.135 15.5843C203.896 12.8416 207.546 12.0454 210.289 13.8055C213.032 15.5658 213.828 19.2164 212.068 21.9591L195.415 47.9042C194.288 49.6603 192.386 50.6185 190.444 50.6185Z" fill="#ffffff"/>
<path d="M93.0791 71.8603C91.9878 71.8603 90.8838 71.5583 89.8975 70.925L63.952 54.2729C61.209 52.5126 60.4125 48.8621 62.1729 46.1193C63.9332 43.3766 67.5837 42.5804 70.3262 44.3405L96.2716 60.9925C99.0147 62.7529 99.8111 66.4034 98.0508 69.1461C96.9237 70.9022 95.0214 71.8603 93.0791 71.8603Z" fill="#ffffff"/>

<path d="M237.024 164.768C235.933 164.768 234.829 164.466 233.842 163.833L207.897 147.181C205.154 145.42 204.358 141.77 206.118 139.027C207.879 136.284 211.528 135.487 214.272 137.248L240.217 153.9C242.959 155.661 243.756 159.311 241.996 162.054C240.868 163.81 238.966 164.768 237.024 164.768Z" fill="#ffffff"/>
</g>
<path d="M40.3335 231.812C18.5317 231.669 0.826294 213.873 0.826294 192.142C0.826294 173.349 13.728 157.625 31.3309 153.519C31.0719 152.01 30.9421 150.472 30.9421 148.91C30.9421 133.986 43.0838 121.844 58.0086 121.844C62.882 121.844 67.557 123.123 71.6522 125.522C82.9531 110.702 100.314 102.029 119.254 102.029C148.91 102.029 173.92 123.819 178.456 152.572C198.98 154.067 215.221 171.243 215.221 192.142C215.221 213.801 197.6 231.595 175.941 231.809L40.3335 231.812ZM58.0086 133.646C49.592 133.646 42.7441 140.493 42.7441 148.91C42.7441 151.312 43.2888 153.613 44.3637 155.75C45.2651 157.543 45.1942 159.67 44.1751 161.398C43.1566 163.127 41.3295 164.219 39.3247 164.298C24.3544 164.889 12.6283 177.12 12.6283 192.142C12.6283 207.408 25.0745 219.909 40.3723 220.01L175.883 220.007C191.04 219.858 203.419 207.357 203.419 192.142C203.419 176.773 190.914 164.268 175.545 164.268C174.97 164.268 174.348 164.293 173.585 164.346C172.013 164.457 170.473 163.934 169.292 162.9C168.109 161.866 167.389 160.404 167.288 158.837C165.669 133.6 144.57 113.831 119.254 113.831C102.277 113.831 86.8772 122.51 78.0609 137.046C77.1195 138.598 75.5168 139.631 73.7146 139.846C71.9112 140.06 70.1108 139.434 68.8315 138.148C65.9441 135.245 62.1001 133.646 58.0086 133.646Z" fill="#ffffff"/>
<g>
<path d="M97.0354 209.148C95.4446 209.148 93.8541 208.541 92.6409 207.326C90.2163 204.899 90.2184 200.966 92.6454 198.542L108.2 183.003C110.628 180.578 114.561 180.58 116.985 183.007C119.409 185.434 119.407 189.367 116.98 191.791L101.425 207.33C100.213 208.542 98.6238 209.148 97.0354 209.148Z" fill="#ffffff"/>
<animateTransform attributeName="transform" type="translate" values="0 90; -2 92" dur="3s" repeatCount="indefinite"/>
    <animate attributeName="opacity" values="0;1;1;0" dur="5s" repeatCount="indefinite"/>
</g>
<g>
<path d="M42.9947 173.742C41.4039 173.742 39.8134 173.135 38.6002 171.92C36.1756 169.493 36.1777 165.561 38.6047 163.136L48.4141 153.336C50.8411 150.912 54.7739 150.914 57.1985 153.341C59.6231 155.768 59.621 159.7 57.194 162.125L47.3847 171.924C46.1721 173.136 44.5834 173.742 42.9947 173.742Z" fill="#ffffff"/>
<animateTransform attributeName="transform" type="translate" values="0 90; -2 92" dur="3s" repeatCount="indefinite"/>
    <animate attributeName="opacity" values="0;1;1;0" dur="2s" repeatCount="indefinite"/>
</g>
<g>
<path d="M129.336 173.742C127.745 173.742 126.154 173.135 124.941 171.92C122.516 169.493 122.519 165.561 124.946 163.136L134.755 153.336C137.182 150.912 141.115 150.914 143.539 153.341C145.964 155.768 145.962 159.7 143.535 162.125L133.726 171.924C132.513 173.136 130.924 173.742 129.336 173.742Z" fill="#ffffff"/>
<animateTransform attributeName="transform" type="translate" values="0 90; -2 92" dur="3s" repeatCount="indefinite"/>
    <animate attributeName="opacity" values="0;1;1;0" dur="3s" repeatCount="indefinite"/>
</g>
<g>
<path d="M157.288 189.372C155.697 189.372 154.106 188.765 152.893 187.55C150.468 185.123 150.471 181.19 152.898 178.766L178.361 153.336C180.788 150.911 184.721 150.914 187.145 153.341C189.57 155.768 189.567 159.701 187.14 162.125L161.677 187.555C160.464 188.767 158.876 189.372 157.288 189.372Z" fill="#ffffff"/>
<animateTransform attributeName="transform" type="translate" values="0 90; -2 92" dur="3s" repeatCount="indefinite"/>
    <animate attributeName="opacity" values="0;1;1;0" dur="4s" repeatCount="indefinite"/>
</g>
<g>
<path d="M63.4929 196.205C61.9021 196.205 60.3116 195.598 59.0984 194.383C56.6738 191.956 56.6759 188.024 59.1029 185.599L91.3983 153.336C93.8253 150.912 97.7581 150.914 100.183 153.341C102.607 155.768 102.605 159.7 100.178 162.125L67.8828 194.387C66.6702 195.599 65.0813 196.205 63.4929 196.205Z" fill="#ffffff"/>
<animateTransform attributeName="transform" type="translate" values="0 90; -2 92" dur="3s" repeatCount="indefinite"/>
    <animate attributeName="opacity" values="0;1;1;0" dur="3s" repeatCount="indefinite"/>
</g>
</svg>
