<svg width="237" height="210" viewBox="0 0 237 210" fill="none" xmlns="http://www.w3.org/2000/svg">
<path d="M193.488 142.778L186.913 142.776C183.483 142.774 180.703 139.992 180.704 136.562C180.705 133.132 183.486 130.352 186.916 130.352H186.918L193.46 130.355C210.405 130.172 224.185 116.259 224.185 99.326C224.185 82.2033 210.248 68.2727 193.117 68.2727C192.385 68.2727 191.603 68.3203 190.933 68.3668C189.285 68.4826 187.658 67.9339 186.413 66.8454C185.169 65.7569 184.41 64.2173 184.304 62.5677C182.507 34.5555 159.086 12.6127 130.984 12.6127C112.139 12.6127 95.0456 22.247 85.2584 38.3841C84.2679 40.0177 82.5803 41.1044 80.6832 41.3309C78.7869 41.5545 76.8904 40.8981 75.5431 39.5433C72.3 36.2822 67.9816 34.4864 63.3836 34.4864C53.9267 34.4864 46.2329 42.1802 46.2329 51.6374C46.2329 54.3355 46.8453 56.9214 48.053 59.3236C49.0014 61.2101 48.9265 63.4494 47.854 65.2685C46.7816 67.0874 44.8583 68.2369 42.7483 68.3203C26.0626 68.9791 12.9919 82.5854 12.9919 99.296C12.9919 116.391 26.8454 130.298 43.8738 130.298H50.2613C53.6919 130.298 56.4729 133.08 56.4729 136.51C56.4729 139.94 53.6919 142.722 50.2613 142.722H43.8738C19.9954 142.722 0.568726 123.241 0.568726 99.296C0.568726 78.6262 14.8469 61.3472 34.2844 56.953C33.9687 55.2145 33.8097 53.4402 33.8097 51.6374C33.8097 35.3302 47.0764 22.0632 63.3836 22.0632C68.8005 22.0632 73.9915 23.5082 78.5206 26.2169C90.9329 9.80296 110.084 0.189575 130.984 0.189575C163.648 0.189575 191.18 24.2461 196.068 55.9485C218.679 57.4692 236.609 76.3435 236.609 99.326C236.609 123.052 217.293 142.544 193.551 142.777C193.53 142.778 193.509 142.778 193.488 142.778Z" fill="#ffffff"/>
<g>
<path d="M60.2205 201.163C58.6321 201.163 57.044 200.558 55.8314 199.347C53.4038 196.923 53.4011 192.99 55.825 190.562L82.5087 163.841H66.432C63.8904 163.841 61.6053 162.293 60.663 159.932C59.7209 157.572 60.3117 154.875 62.1546 153.125L101.288 115.962C103.775 113.6 107.707 113.7 110.069 116.189C112.431 118.676 112.33 122.608 109.842 124.97L81.9931 151.418H97.4899C100.002 151.418 102.266 152.93 103.228 155.25C104.19 157.57 103.66 160.241 101.885 162.019L64.6159 199.341C63.4027 200.555 61.8116 201.163 60.2205 201.163Z" fill="#ffffff"/>
<animate attributeName="opacity" values="1;0;0;1" dur="3s" repeatCount="indefinite"/>
</g>
<g>
<path d="M123.532 179.332C121.941 179.332 120.35 178.725 119.137 177.511C116.713 175.084 116.715 171.151 119.142 168.726L145.795 142.1H129.743C127.204 142.1 124.921 140.555 123.977 138.199C123.033 135.842 123.618 133.148 125.455 131.395L164.588 94.0505C167.07 91.6823 171.001 91.7736 173.37 94.2558C175.738 96.7377 175.647 100.669 173.165 103.038L145.25 129.677H160.801C163.314 129.677 165.579 131.191 166.541 133.513C167.502 135.835 166.969 138.508 165.191 140.283L127.922 177.515C126.709 178.726 125.12 179.332 123.532 179.332Z" fill="#ffffff"/>
<animate attributeName="opacity" values="0;1;1;0" dur="3s" repeatCount="indefinite"/>
</g>
<g>
<path d="M91.8528 209.148C90.262 209.148 88.6715 208.541 87.4583 207.326C85.0337 204.899 85.0358 200.966 87.4628 198.542L103.018 183.003C105.445 180.578 109.378 180.58 111.802 183.007C114.227 185.434 114.225 189.367 111.798 191.791L96.2427 207.33C95.0301 208.542 93.4411 209.148 91.8528 209.148Z" fill="#ffffff"/>
<animate attributeName="opacity" values="0;1;1;0" dur="5s" repeatCount="indefinite"/>
</g>
<g>
<path d="M35.3274 188.65C33.7366 188.65 32.1461 188.042 30.9329 186.828C28.5084 184.401 28.5105 180.468 30.9375 178.044L40.7468 168.244C43.1738 165.82 47.1067 165.822 49.5313 168.248C51.9558 170.675 51.9537 174.608 49.5267 177.033L39.7174 186.832C38.5048 188.044 36.9161 188.65 35.3274 188.65Z" fill="#ffffff"/>
<animate attributeName="opacity" values="0;1;1;0" dur="2s" repeatCount="indefinite"/>
</g>
<g>
<path d="M146.515 197.346C144.924 197.346 143.333 196.739 142.12 195.524C139.696 193.097 139.698 189.165 142.125 186.74L174.42 154.477C176.847 152.053 180.78 152.055 183.204 154.482C185.629 156.909 185.627 160.841 183.2 163.266L150.905 195.528C149.692 196.74 148.103 197.346 146.515 197.346Z" fill="#ffffff"/>
<animate attributeName="opacity" values="0;1;1;0" dur="2s" repeatCount="indefinite"/>

</g>
</svg>
