<svg width="237" height="239" viewBox="0 0 237 239" fill="none" xmlns="http://www.w3.org/2000/svg">
<path d="M193.126 143.112L186.551 143.11L43.5121 143.056C19.6337 143.056 0.207031 123.576 0.207031 99.6306C0.207031 78.9607 14.4852 61.6817 33.9227 57.2875C33.607 55.549 33.448 53.7747 33.448 51.9719C33.448 35.6647 46.7147 22.3978 63.0219 22.3978C68.4388 22.3978 73.6298 23.8427 78.1589 26.5515C90.5712 10.1375 109.722 0.524109 130.622 0.524109C163.286 0.524109 190.819 24.5806 195.707 56.283C218.318 57.8037 236.247 76.6781 236.247 99.6606C236.247 123.386 216.931 142.879 193.189 143.112C193.168 143.112 193.147 143.112 193.126 143.112ZM186.556 130.687L193.098 130.689C210.043 130.506 223.824 116.593 223.824 99.6606C223.824 82.5378 209.886 68.6073 192.755 68.6073C192.023 68.6073 191.241 68.6549 190.572 68.7013C188.931 68.8144 187.297 68.2685 186.052 67.1799C184.808 66.0914 184.048 64.5518 183.943 62.9022C182.145 34.8901 158.725 12.9473 130.622 12.9473C111.778 12.9473 94.6839 22.5816 84.8967 38.7186C83.9062 40.3522 82.2186 41.4389 80.3215 41.6655C78.4255 41.8905 76.5287 41.2327 75.1814 39.8778C71.9383 36.6167 67.6199 34.8209 63.0219 34.8209C53.565 34.8209 45.8712 42.5147 45.8712 51.9719C45.8712 54.67 46.4836 57.256 47.6913 59.6581C48.6397 61.5446 48.5648 63.7839 47.4923 65.6031C46.4199 67.422 44.4966 68.5715 42.3866 68.6549C25.7009 69.3136 12.6302 82.92 12.6302 99.6306C12.6302 116.725 26.4837 130.633 43.5121 130.633H49.8996L186.556 130.687Z" fill="#ffffff"/>
<g>
<path d="M58.5973 226.946C57.0065 226.946 55.416 226.338 54.2028 225.124C51.7783 222.697 51.7804 218.764 54.2074 216.34L92.6591 177.927C95.0861 175.503 99.019 175.504 101.444 177.931C103.868 180.358 103.866 184.291 101.439 186.715L62.9873 225.128C61.7747 226.34 60.186 226.946 58.5973 226.946Z" fill="#ffffff"/>
<path d="M97.0296 226.965C95.4388 226.965 93.8483 226.358 92.6351 225.143L54.2222 186.692C51.7976 184.265 51.7998 180.332 54.2268 177.908C56.6541 175.484 60.587 175.485 63.0112 177.912L101.424 216.364C103.849 218.791 103.847 222.723 101.42 225.148C100.207 226.359 98.6183 226.965 97.0296 226.965Z" fill="#ffffff"/>
<path d="M108.881 207.656C108.88 207.656 108.879 207.656 108.878 207.656L46.7623 207.675C43.3316 207.673 40.5519 204.881 40.5537 201.451C40.5555 198.021 43.3362 195.233 46.7653 195.233C46.7662 195.233 46.7674 195.233 46.7683 195.233L108.884 195.298C112.315 195.3 115.094 198.05 115.093 201.48C115.091 204.909 112.31 207.656 108.881 207.656Z" fill="#ffffff"/>
<path d="M77.8074 238.714C77.8062 238.714 77.8056 238.714 77.8044 238.714C74.3738 238.714 71.594 235.971 71.5959 232.541L71.6274 170.405C71.6292 166.975 74.4102 164.175 77.839 164.175C77.8402 164.175 77.8408 164.175 77.842 164.175C81.2726 164.175 84.0524 167.001 84.0505 170.431L84.019 232.526C84.0172 235.956 81.2362 238.714 77.8074 238.714Z" fill="#ffffff"/>
<animate attributeName="opacity" values='1;0;0;1' dur="6s" repeatCount="indefinite" /> 
</g>
<g>
<path d="M144.757 199.416C142.617 199.416 140.535 198.31 139.382 196.327C137.657 193.362 138.662 189.56 141.628 187.835L179.211 165.97C182.177 164.243 185.979 165.25 187.704 168.216C189.429 171.181 188.424 174.983 185.458 176.708L147.874 198.573C146.892 199.145 145.817 199.416 144.757 199.416Z" fill="#ffffff"/>
<path d="M182.645 198.855C181.645 198.855 180.63 198.612 179.688 198.101L141.472 177.36C138.457 175.724 137.339 171.953 138.976 168.938C140.612 165.923 144.382 164.806 147.398 166.442L185.614 187.182C188.629 188.819 189.747 192.59 188.11 195.605C186.985 197.678 184.85 198.855 182.645 198.855Z" fill="#ffffff"/>
<path d="M163.532 210.141C163.531 210.141 163.53 210.141 163.529 210.141C160.098 210.141 157.319 207.215 157.32 203.785L157.342 161.051C157.344 157.621 160.125 154.858 163.554 154.858C163.555 154.858 163.556 154.858 163.557 154.858C166.988 154.858 169.767 157.556 169.765 160.986L169.744 203.834C169.742 207.264 166.961 210.141 163.532 210.141Z" fill="#ffffff"/>
<animate attributeName="opacity" values='0;1;1;0' dur="4s" repeatCount="indefinite" /> 
</g>
</svg>
