<svg width="219" height="154" viewBox="0 0 219 154" fill="none" xmlns="http://www.w3.org/2000/svg">
<path d="M180.402 84.4213H23.1987C10.9793 84.4213 0.65564 73.8995 0.65564 61.4451C0.65564 48.776 10.7519 38.4687 23.1617 38.4687C35.5618 38.4687 45.6495 48.7084 45.6495 61.2944C45.6495 64.725 42.8683 67.506 39.4379 67.506C36.0076 67.506 33.2264 64.725 33.2264 61.2944C33.2264 55.6558 28.6174 50.8918 23.1617 50.8918C17.6962 50.8918 13.0788 55.7246 13.0788 61.4451C13.0788 67.1654 17.7132 71.9981 23.1987 71.9981H180.402C183.833 71.9981 186.614 74.7791 186.614 78.2097C186.614 81.6403 183.833 84.4213 180.402 84.4213Z" fill="#ffffff">
        <animate attributeName="opacity" values='0;1;1;0'  dur="6s" repeatCount="indefinite"/>
    </path>
<path d="M212.081 57.7116H84.8297C69.2225 57.7116 56.5252 44.889 56.5252 29.1277C56.5252 13.3665 69.1649 0.543579 84.7011 0.543579C100.202 0.543579 112.813 13.3149 112.813 29.0131C112.813 32.4437 110.031 35.2247 106.601 35.2247C103.171 35.2247 100.39 32.4437 100.39 29.0131C100.39 20.1652 93.3518 12.9667 84.7011 12.9667C76.0152 12.9667 68.9484 20.2165 68.9484 29.1277C68.9484 37.8876 76.2209 45.2884 84.8297 45.2884H212.081C215.512 45.2884 218.293 48.0694 218.293 51.5C218.293 54.9306 215.512 57.7116 212.081 57.7116Z" fill="#ffffff">
 <animate attributeName="opacity" values='1;0;0;1'  dur="4s" repeatCount="indefinite"/>
 </path>
<path d="M43.353 153.881C35.8129 153.881 28.7424 151.02 23.4432 145.824C18.0918 140.578 15.1443 133.532 15.1443 125.984C15.1443 110.602 27.8271 98.0868 43.416 98.0868H198.416C201.846 98.0868 204.628 100.868 204.628 104.298C204.628 107.729 201.846 110.51 198.416 110.51H43.416C34.5288 110.51 27.5674 117.307 27.5674 125.984C27.5674 134.661 34.5015 141.458 43.353 141.458C52.1869 141.458 59.1069 134.611 59.1069 125.87C59.1069 122.439 61.8882 119.658 65.3185 119.658C68.7488 119.658 71.5301 122.439 71.5301 125.87C71.5301 141.315 58.8898 153.881 43.353 153.881Z" fill="#ffffff">
  <animate attributeName="opacity" values='0;1;1;0'  dur="5s" repeatCount="indefinite"/> 
  </path>

</svg>

